<?xml version="1.0" encoding="utf-8"?>
<!-- Generator: Adobe Illustrator 23.0.1, SVG Export Plug-In . SVG Version: 6.00 Build 0)  -->
<svg version="1.1" id="Layer_1" xmlns="http://www.w3.org/2000/svg" xmlns:xlink="http://www.w3.org/1999/xlink" x="0px" y="0px"
	 viewBox="0 0 60 60" style="enable-background:new 0 0 60 60;" xml:space="preserve">
<style type="text/css">
	.st0{fill:#FFFFFF;}
	.st1{fill:none;stroke:#C3F0E9;}
	.st2{fill:#05C0A5;}
</style>
<path class="st0" d="M10,0.5h40c5.2,0,9.5,4.3,9.5,9.5v40c0,5.2-4.3,9.5-9.5,9.5H10c-5.2,0-9.5-4.3-9.5-9.5V10
	C0.5,4.8,4.8,0.5,10,0.5z"/>
<path class="st1" d="M10,0.5h40c5.2,0,9.5,4.3,9.5,9.5v40c0,5.2-4.3,9.5-9.5,9.5H10c-5.2,0-9.5-4.3-9.5-9.5V10
	C0.5,4.8,4.8,0.5,10,0.5z"/>
<path id="Shape" class="st2" d="M30,10.9c-10.6,0-19.1,8.5-19.1,19.1S19.4,49.1,30,49.1S49.1,40.6,49.1,30S40.6,10.9,30,10.9z
	 M44.7,27.9h-6.2c-0.1-4-0.9-7.7-1.9-10.7c-0.1-0.3-0.1-0.5-0.3-0.8C40.7,18.6,44,22.8,44.7,27.9z M15.3,32.1h6.2
	c0.1,4,0.9,7.7,1.9,10.7c0.1,0.3,0.1,0.5,0.3,0.8C19.3,41.4,16,37.2,15.3,32.1z M23.5,17.2c-1.1,2.9-1.8,6.6-1.9,10.7h-6.2
	c0.7-5.1,4-9.3,8.5-11.4C23.8,16.7,23.5,16.9,23.5,17.2z M32.6,41.3c-1.1,2.9-2.2,3.6-2.6,3.6s-1.4-0.7-2.6-3.6
	c-1-2.5-1.5-5.7-1.7-9.2h8.4C34,35.6,33.4,38.8,32.6,41.3z M25.7,27.9c0.1-3.4,0.7-6.7,1.7-9.2c1.1-2.9,2.2-3.6,2.6-3.6
	s1.4,0.7,2.6,3.6c1,2.5,1.5,5.7,1.7,9.2H25.7z M36.2,43.5c0.1-0.3,0.1-0.5,0.3-0.8c1.1-2.9,1.8-6.6,1.9-10.7h6.2
	C44,37.2,40.7,41.4,36.2,43.5z"/>
</svg>
