<?xml version="1.0" encoding="utf-8"?>
<!-- Generator: Adobe Illustrator 16.0.0, SVG Export Plug-In . SVG Version: 6.00 Build 0)  -->
<!DOCTYPE svg PUBLIC "-//W3C//DTD SVG 1.1//EN" "http://www.w3.org/Graphics/SVG/1.1/DTD/svg11.dtd">
<svg version="1.1" id="Layer_1" xmlns="http://www.w3.org/2000/svg" xmlns:xlink="http://www.w3.org/1999/xlink" x="0px" y="0px"
	 width="64px" height="64px" viewBox="0 0 64 64" enable-background="new 0 0 64 64" xml:space="preserve">
<title>icon</title>
<desc>Created with Sketch.</desc>
<path id="Rectangle-4" fill="#CDF4EE" d="M19,5h26c7.732,0,14,6.268,14,14v26c0,7.732-6.268,14-14,14H19c-7.732,0-14-6.268-14-14V19
	C5,11.268,11.268,5,19,5z"/>
<g>
	<polygon fill="#05C0A5" points="31.997,16.085 22.228,32.295 31.997,27.855 	"/>
	<polygon fill="#5A78F0" points="31.997,27.855 22.228,32.295 31.997,38.071 	"/>
	<polygon fill="#04B295" points="41.766,32.295 31.997,16.085 31.997,27.855 	"/>
	<polygon fill="#476CE2" points="31.997,38.071 41.766,32.295 31.997,27.855 	"/>
	<polygon fill="#05C0A5" points="22.228,34.148 31.997,47.915 31.997,39.921 	"/>
	<polygon fill="#04B295" points="31.997,39.921 31.997,47.915 41.771,34.148 	"/>
</g>
</svg>
